<svg id="Camada_1" data-name="Camada 1" xmlns="http://www.w3.org/2000/svg" viewBox="0 0 292.9 349.47"><defs><style>.cls-1{fill:#ffd301;}.cls-2{fill:#ea8e04;}.cls-3{fill:#a7dbe0;}.cls-4{fill:#c4f0f5;}.cls-5{fill:#64d1d9;}.cls-6{fill:#f08e00;}.cls-7{fill:#ef8c02;}.cls-8{fill:none;stroke:#ef8c02;stroke-miterlimit:10;}.cls-9{fill:#ffae2f;}</style></defs><title>nave1</title><path class="cls-1" d="M127.89,278.79c-29.69-31.12-19.42-104.6-19.42-104.6,3-56.52,12.62-87,22.43-103.5,12.61-21.16,25.61-19.07,25.61-19.07s10.4.55,20.62,18.55c8.8,15.5,17.47,43.93,19.29,96.08C200.34,279,172.63,277,172.63,277"/><circle class="cls-2" cx="153.71" cy="140.37" r="27"/><path class="cls-3" d="M94.61,299.51s10.49-74.6,13.38-71.66c2.22,2.26,8.53,47,19.92,48.7l-4.06,29.26S108,308.58,94.61,299.51Z"/><path class="cls-4" d="M124,311.85s36.57,11.06,49.65-.9c0,0-1.9-88.12-20.25-86.95S121.4,304.22,124,311.85Z"/><path class="cls-3" d="M204.15,302.72s-.24-66.43-8.68-77.82a.59.59,0,0,0-1.07.28c-1,7-4.87,46.84-23.34,52l2.5,30.23S193.79,311.13,204.15,302.72Z"/><path class="cls-5" d="M119.26,99.29s49-10,69.15,1c0,0-7.29-24.54-10.28-28.32-3.24-4.09-14.34-8.9-47.5-1.59C130.63,70.4,118.44,97.41,119.26,99.29Z"/><path class="cls-6" d="M130.79,70.37c2.57-.57,34.44-7.35,47.23,1.35,0,0-18.78-45.24-47.29-1.47C130.69,70.31,130.73,70.38,130.79,70.37Z"/><circle class="cls-7" cx="152.25" cy="191.46" r="14.25"/><circle class="cls-4" cx="152.25" cy="191.46" r="10.03"/><circle class="cls-8" cx="121.85" cy="190.74" r="7.92"/><circle class="cls-8" cx="121.85" cy="190.74" r="11.25"/><circle class="cls-7" cx="121.85" cy="190.74" r="11.25"/><circle class="cls-4" cx="121.85" cy="190.74" r="7.92"/><circle class="cls-7" cx="180.86" cy="193.05" r="11.25"/><circle class="cls-4" cx="180.86" cy="193.05" r="7.92"/><circle class="cls-9" cx="176.51" cy="141.47" r="2"/><circle class="cls-9" cx="173.04" cy="129.81" r="2"/><circle class="cls-9" cx="165.51" cy="121.25" r="2"/><circle class="cls-9" cx="153.91" cy="118.02" r="2"/><circle class="cls-9" cx="141.81" cy="120.59" r="2"/><circle class="cls-9" cx="134.59" cy="128.58" r="2"/><circle class="cls-9" cx="130.45" cy="140.62" r="2"/><circle class="cls-9" cx="133.93" cy="152.27" r="2"/><circle class="cls-9" cx="141.46" cy="160.84" r="2"/><circle class="cls-9" cx="153.05" cy="164.07" r="2"/><circle class="cls-9" cx="165.38" cy="160.83" r="2"/><circle class="cls-9" cx="172.84" cy="152.17" r="2"/><circle class="cls-4" cx="154.09" cy="139.76" r="18.39"/></svg>