<svg id="Camada_1" data-name="Camada 1" xmlns="http://www.w3.org/2000/svg" viewBox="0 0 634.28 336.36"><defs><style>.cls-1{fill:#ab6cba;}.cls-2{fill:#743f89;}.cls-3{fill:#bd66e1;}.cls-4{fill:#be66e0;}.cls-5{fill:#a860c2;}.cls-6{fill:#a960c6;}.cls-7{fill:#a55cc2;}.cls-8{fill:#8849a0;}.cls-9{fill:#864b9a;}.cls-10{fill:#85479a;}.cls-11{fill:#bb69d7;}.cls-12{fill:#a370ac;}.cls-13{fill:#bb6bd7;}.cls-14{fill:#a471ac;}.cls-15{fill:#a672ac;}.cls-16{fill:#87479d;}.cls-17{fill:#884aa0;}.cls-18{fill:#8b4c9f;}.cls-19{fill:#90618e;}.cls-20{fill:#90658c;}.cls-21{fill:#845682;}.cls-22{fill:#855583;}.cls-23{fill:#9259a1;}.cls-24{fill:#9650b4;}.cls-25{fill:#422350;}.cls-26{fill:#f8f0f9;}.cls-27{fill:#8c47a9;}.cls-28{fill:#73348b;}.cls-29{fill:#9548ae;}.cls-30{fill:#ebebf3;}.cls-31{fill:#5bac81;}.cls-32,.cls-34{fill:#059ece;}.cls-32{opacity:0.23;}.cls-33{fill:#026984;}.cls-35{fill:#0998ba;}.cls-36{fill:#035a75;}.cls-37{fill:#005271;}.cls-38{fill:#f4ed08;}.cls-39{fill:#f5ed07;}.cls-40{fill:#f2ec0a;}.cls-41{fill:#f9ee04;}</style></defs><title>nave3 + ET2</title><g id="ET2"><path class="cls-1" d="M264.27,108l2.22-9c-5.49.19-9.23-2.67-12.74-6-7.13,5-5.49,10.73-1.65,16.66C256.06,108.44,259.45,103.72,264.27,108Z"/><path class="cls-2" d="M252.1,109.62C252,104,250,98.24,253.75,93c-.23-3,.2-7.14-4-7-4.45.13-3.18,4.6-3.29,7.27a87.29,87.29,0,0,0,.71,14C247.41,109.58,248.59,112.09,252.1,109.62Z"/><path class="cls-3" d="M359.11,133.9c-.17,8.08,1.07,16.38-3.53,23.86a1,1,0,0,1-.69.44c-8.81,1.36-11.59,6.36-11.33,13.22l-6.25,11c-7.48,4.46-15.36,7.64-24.72,6.06l-13.18-.1c-9.9,1.82-18-1.39-24.88-7.91a.68.68,0,0,1-.17-.21l-2.06-3.47,0-.07c-2.38-3.23-4.46-6.73-8.59-8.39a.92.92,0,0,1-.35-.26c-2.32-2.65-3.1-3.28-3.67-5.27a.84.84,0,0,1,.13-.7,45.8,45.8,0,0,1,3.24-4.63c5.26-6,3-10.17-3.79-13.22-2.44-1.1-5.32-1.65-7-4a1,1,0,0,1-.15-.33c-.43-1.73-.52-3.52-1-5.25a1.22,1.22,0,0,1,0-.27c.5-5.91.25-12,5.53-16.57a.82.82,0,0,0,.2-.25l4.88-9.5a14.34,14.34,0,0,0,2-7.73c0-.37,0-.52.61-.83.84-.41.84-.41,1.38-.2a26.82,26.82,0,0,1,2.7-1.44,1.17,1.17,0,0,1,.42-.09c10.41-.24,19.79-1.5,21.5-13.87.47-3.39,4.88-6.73,8-4.52,7.64,5.45,20-7.14,23.62,3.62,4.07,12,10.59,15.46,22.71,13.37,1.47-.26,2.74.63,3.92,1.39v-.13c2.67,2.39,4.06,5.08,2.56,8.33l-.25,3.71c1.59,4.06-1.68,9.26,3.42,12.48,4.21,2.82,9.84,5.11,5,11.18A.85.85,0,0,0,359.11,133.9Z"/><path class="cls-4" d="M333.68,192.23c7.06-.07,14.12,0,21.18-.25s12.34,2,15,8.43c4.36,6.21,0,7.57-5.35,7.52-5.07-.05-9.32.19-9.71,6.13-14.37,2.73-27.51-.51-40-7-4.55-2.36-7-5-1.29-8.67C319.08,193.12,325.53,190.28,333.68,192.23Z"/><path class="cls-5" d="M359.11,133.61c2.08-6.88-4.88-7-8.44-9.66,1.89-3,5.13-4.22,8.38-5.41,17.3,3.44,26.94,14,28.19,30.74.27,3.65.61,7.29.93,10.94-5.39,1.5-6.84-2-8.19-5.56C377.53,143.81,373.58,134.24,359.11,133.61Z"/><path class="cls-6" d="M348.58,97.81c-18.95,4.76-21.29,3.63-28.57-14.35-1-2.44-2.17-3.23-4.66-1.94-.61.32-1.22,1.06-1.83,1-12.71-.75-22.91.67-27.45,14.83-1.73,5.36-11.8,2-18.11,2.35-2-3.13.11-4.6,2.72-5.88,14.11-2.34,14.22-2.48,13.13-15.54.47-3.06,3.17-3.39,5.66-4l1.27-6.21c4,.26,4.51,4.61,7.82,5.65,6.34,5.7,12.15,2,18-.89,2-.57,3.85.33,5.74.73l2.35.8c2.44,1.7,2.69,4.18,2.88,6.68,1.36,10.74,2.19,11.38,15,12.11A8,8,0,0,1,348,96,9.92,9.92,0,0,1,348.58,97.81Z"/><path class="cls-7" d="M256.71,117.77c-2.55,5.25.21,11.67-4.27,16.5-2,1.6-4.83.42-7,1.69-9.21,3.15-10.54,10.9-12.46,18.31-2.29,4.15-4.4,2.29-6.49-.17C225.65,132.85,235.42,121.09,256.71,117.77Z"/><path class="cls-8" d="M253,140.43a2.08,2.08,0,0,1,.61,0c2.7.47,5.41.87,8.09,1.43,5.39,1.13,7.77,5,8.06,9.46.38,5.83-3.73,8.9-9,10.76a1.33,1.33,0,0,1-1.67-.64L253,148.22a1.06,1.06,0,0,1-.09-.25C252.46,145.77,251.07,140.66,253,140.43Z"/><path class="cls-9" d="M299.65,197c-7.44.63-13.81-2.74-20.52-4.72l-4.69-11.8,25.49,7.91C299.87,190.59,299.65,196.92,299.65,197Z"/><path class="cls-10" d="M333.68,192.23,313.5,198.4c-.05-3.26-.11-6.52-.16-9.78,7.93-2.94,15.82-6.1,24.55-6.52Z"/><path class="cls-11" d="M226.56,154.1c2.13,1.2,4.27,1.53,6.5.17.89,4.14,6.17,6.68,5,11.59,1.51,3.39,1.1,6.26-2.83,8l-8.1-1.32c-4.33,1.24-5-2.2-6.71-4.43Z"/><path class="cls-12" d="M322.29,73.58c-1.57,2.2-3.05,2-4.46-.15A3.89,3.89,0,0,1,316.35,72c-2-4.52-2.66-10.35-10.07-9.85-8,.53-7.71,6.68-8.68,11.86a3.16,3.16,0,0,1-1.17,1.65c-4.32-1-4-4.91-5.71-7.56,1.22-9.75,7.85-14.07,17.69-13.71C317.57,54.73,322.45,62.05,322.29,73.58Z"/><path class="cls-13" d="M380,154.66l8.19,5.56c2.17,1.48,1.76,3.65,1.78,5.71,1.62,3.47,1.14,6.36-2.72,8.3l-8.42-1.54c-4,.6-5.87-1.24-6.49-4.65Z"/><path class="cls-14" d="M289.47,74.33l-4,3.33c-1.14,1-2.56,1-4,1-11.92-.51-14.46,2.66-9.95,12.54.69,1.53,1.79,2.89,1,4.66-2.66.18-4.27,1.39-4.55,4l-2.32-.37c-.11-1,.12-2.19-.4-2.93-5.15-7.43-6.76-14.84.61-21.78C273.45,67.51,281.52,70.27,289.47,74.33Z"/><path class="cls-15" d="M324.53,81.83l.12-7.42c7.48-5.21,15.3-6.06,22.32.11,7.41,6.49,6.83,14,1,21.4l-6.79-.26c-1.1-5.2,6.66-9.85.48-15.62C334.7,73.51,330.38,82.57,324.53,81.83Z"/><path class="cls-16" d="M354.78,214.05c-1.62-2.31-5.34-4.17-2.67-7.54,2.47-3.12,6.42-2.42,9.79-1.9,4.17.64,8.81,2.95,7.93-4.21a9,9,0,0,1,6.71.74c3.23,4.67-3,3.51-4,5.57,0,2.3,6.41,6.93-2.91,5.88C364.82,212.05,359.74,213.5,354.78,214.05Z"/><path class="cls-17" d="M342.11,174.38c-3.9-4.35-4.46-8.82.39-13.85,3.58-3.72,7.62-5.94,12.85-2.4C353.41,164.71,348.51,170.5,342.11,174.38Z"/><path class="cls-1" d="M350.78,106.66c-.73-3-1.48-6-2.23-9,5.46.19,9.25-2.67,12.75-6,7.14,5,5.49,10.73,1.65,16.66C359,107.14,355.61,102.4,350.78,106.66Z"/><path class="cls-2" d="M363,108.32c.09-5.6,2.12-11.38-1.65-16.66.24-3-.2-7.14,4-7,4.45.12,3.18,4.59,3.29,7.26a87.29,87.29,0,0,1-.71,14C367.62,108.28,366.45,110.79,363,108.32Z"/><path class="cls-18" d="M359.05,118.54c-1.75,3.19-3.58,6.28-8.38,5.41-6.1-4.85-2.63-9.63.11-14.42C355.09,111.32,353.73,117.56,359.05,118.54Z"/><path class="cls-19" d="M235.21,173.9q1.41-4,2.83-8c6.36,3.73,6.59,9.18,5.39,15.91C239,180,237.52,176.54,235.21,173.9Z"/><path class="cls-20" d="M387.23,174.23c.91-2.77,1.82-5.53,2.72-8.3,5.84,6.11,5.84,6.11,5.42,15.17C390.54,180.89,389.87,176.53,387.23,174.23Z"/><path class="cls-21" d="M220.41,168.15c3.33,0,4.2,3.28,6.71,4.43-2.82,2.7-4.24,6.64-8.54,8.57A12.52,12.52,0,0,1,220.41,168.15Z"/><path class="cls-22" d="M372.32,168l6.49,4.65-8.11,9.47C368.81,176.37,368.81,172.11,372.32,168Z"/><path class="cls-16" d="M372.54,206.71l4-5.57c3.78,1,7.32,2.34,9.42,6.8Z"/><path class="cls-23" d="M263.46,168.27c6.71-.5,9.42,2.53,8.82,8.51A61.86,61.86,0,0,1,263.46,168.27Z"/><path class="cls-24" d="M305.36,180.4c-11.94.67-20.95-3.78-26.78-13.46-5-8.31-2.35-16.13,7-19.67,13.6-5.13,27.68-4.45,41.21-.38,11.59,3.49,13.89,13.69,6.1,22.54C326.11,177.23,318,180.45,305.36,180.4Z"/><path class="cls-25" d="M336,119.42c-1.35,11.92-11.47,15.44-21.42,18.9-13.36,4.63-37.11-5.18-38.1-19,11.5,1.28,23.05,1.88,34.59,2.55C319.91,122.37,327.51,117.65,336,119.42Z"/><path class="cls-26" d="M335.69,119.56c-19.59,8.12-39.16,8.2-58.72,0a1.85,1.85,0,0,1-.72-.57c-1.3-1.74-3.77-3-3.66-5.3a1.63,1.63,0,0,1,1.78-1.43,1.76,1.76,0,0,1,.39.06c27.63,8,39.6,7.91,63.64-.3a1.71,1.71,0,0,1,2.15.91,1.53,1.53,0,0,1,.11.63c-.22,2.46-2.72,3.87-4.38,5.65A1.81,1.81,0,0,1,335.69,119.56Z"/><path class="cls-27" d="M343.92,139.3c-.26,2.2-1.42,3.9-3.85,4-3.1.15-4.43-1.87-4.42-4.43a3.81,3.81,0,0,1,3.78-4C342.5,134.73,343.69,136.72,343.92,139.3Z"/><path class="cls-28" d="M290.88,107.37a3.49,3.49,0,0,1,3.66-3.18c2.71-.06,4.88,1,5.36,3.6.44,2.38-1.3,3.65-3.72,3.39C293.54,111,292.07,109.07,290.88,107.37Z"/><path class="cls-29" d="M271.54,126.3c-.39,2.22-2,3.39-4.42,3.35-2.07,0-3.3-1.19-3.09-3.21a3.74,3.74,0,0,1,4.28-3.55A3.28,3.28,0,0,1,271.54,126.3Z"/><ellipse class="cls-30" cx="276.29" cy="84.9" rx="12.6" ry="11.67"/><ellipse class="cls-31" cx="275.59" cy="85.55" rx="6.3" ry="5.84"/><ellipse class="cls-30" cx="306.75" cy="68.04" rx="12.6" ry="11.67"/><ellipse class="cls-31" cx="306.75" cy="67.39" rx="6.3" ry="5.84"/><ellipse class="cls-30" cx="336.51" cy="84.9" rx="12.6" ry="11.67"/><ellipse class="cls-31" cx="335.81" cy="85.55" rx="6.3" ry="5.84"/><path class="cls-28" d="M322.37,107.37a3.51,3.51,0,0,0-3.66-3.18c-2.71-.06-4.88,1-5.37,3.6-.44,2.38,1.3,3.65,3.73,3.39C319.7,111,321.18,109.07,322.37,107.37Z"/><path class="cls-4" d="M257.29,192c-7.07-.22-12.35,2-15,8.43-4.36,6.21,0,7.57,5.34,7.52,5.07,0,9.32.19,9.71,6.13,14.37,2.72,27.52-.51,40-7,4.56-2.36,7-5,1.3-8.68-7-3.24-12.56-7.14-20.19-6.16"/><path class="cls-16" d="M257.35,214.05c1.63-2.31,5.34-4.17,2.68-7.54-2.48-3.12-6.43-2.42-9.8-1.9-4.17.64-8.81,2.95-7.93-4.21a9,9,0,0,0-6.71.74c-3.23,4.67,3,3.51,4,5.57,0,2.3-6.41,6.93,2.91,5.88C247.33,212.05,252.4,213.5,257.35,214.05Z"/><path class="cls-16" d="M239.6,206.71l-4-5.57c-3.77,1-7.33,2.34-9.43,6.8Z"/><polygon class="cls-9" points="299.73 194.32 299.55 199.02 295.65 196.93 299.73 194.32"/></g><path class="cls-32" d="M424.06,89.75a216.87,216.87,0,0,1,24.64,42.89c2.6,6.08,1.5,10.51-3.47,15.1-20.69,19.16-47,27.62-73.68,35-11.84,3.25-24.16,4.89-36.26,7.27-4.64,3.28-10.69.92-15.5,3.51-38.22,2.11-76.33,2.54-113.89-6.22-13.46-3.14-26.62-7.05-37.81-15.19-9.18-6.67-10.23-14.33-3.68-23,3.16-6.87,8.86-13.08,9.73-20.59.23-2,0-3-2-3,4.2-1.53,5.76-5.36,7.63-8.78,14-25.63,31.23-48.9,55.33-66.95,44.77-33.54,94.69-35,141.54-4.25C395.14,57.65,410.5,72.82,424.06,89.75Z"/><path class="cls-33" d="M197.29,288.93c-18.95-1.86-37.95-3.35-56.83-5.68C106.2,279,72.66,272,41,258.18c-10.28-4.47-20-9.75-28.34-17.27-6.37-5.79-8-12.36-5.06-20.31a59.86,59.86,0,0,1,11.75-19.19,125.13,125.13,0,0,1,24.38-20.89c39.22-26,82.33-43.4,128.37-55,1,0,2.65.06,2,4-1,6-7.23,15.51-10.16,20.11-20.34,3.82-36.07,14.19-46.94,30.88-4.2,6.46.24,10.72,6.13,13.5,14,6.61,29.33,8.16,44.57,9.75C221.91,209.37,275,202,327.8,191.43c2.73-.2,5.45-.84,8.25-.47.27,0,.83.71,1-.15a2,2,0,0,1-2-1.37c1.74-3.94,5.67-3.11,8.88-3.6,25.18-3.86,49.39-10.6,72.27-21.49a126.31,126.31,0,0,0,15.28-8.71c16.07-10.61,21-15.51,14.68-29.15-.91-1.95-20-33-22.08-36.74,49.86-2.15,99,1.24,146.32,17.79,13.88,4.85,27,11,38.35,20.4,7.74,6.44,9,13.77,4.78,22.46-5.5,11.29-13.56,20.76-22.79,29.37-34.07,31.76-75.57,51.69-119.46,67.77L452,254.59c-7.74,5.61-17.14,7.16-26.14,9.58-46,12.34-92.91,19.81-140.5,23.61-24.76,2.29-49.55,3.76-74.42,3.73A44.2,44.2,0,0,1,197.29,288.93Z"/><path class="cls-34" d="M286.62,285.21c52.15-4.57,103.53-13,153.7-27.63,3.85-1.12,7.78-2,11.68-3C440.77,271.84,423.87,283,406,293c-11,6.18-22.52,11.54-34.9,14.94-26.31.82-51.8-2.81-75.82-13.46C291.4,292.72,284.65,292.38,286.62,285.21Z"/><path class="cls-35" d="M286.62,285.21c7,9.55,18.82,10.48,29,13.92,16.45,5.57,34.06,5.36,51.2,7.52a28.43,28.43,0,0,1,4.33,1.26c-61.18,20.62-119,13.35-173.83-19Q242,288.7,286.62,285.21Z"/><path class="cls-36" d="M164.41,149.08c-3.3,14.68-1.65,18.36,12.55,25.48,19.37,9.71,40.61,12.88,62,15.56,27,3.4,54.2,1.44,81.31,1.69,3.43-.5,7.26-2.87,9.58,1.86-24.94,4.86-49.93,9.9-75.26,12-26.64,2.22-53.35,4-80.25,1-17-1.91-34-3.07-50.09-9.3-13.5-5.24-15.48-10.89-7.08-22.27,10.42-14.12,26-21.64,42.05-28.42C162.1,145.43,164,145.65,164.41,149.08Z"/><path class="cls-37" d="M329.82,193.67c-2.68-3-6.38-1.24-9.58-1.86,4.7-3,10-1.19,15.05-1.82l6.34.6Z"/><line class="cls-33" x1="445.93" y1="126.45" x2="444.14" y2="127.49"/><path class="cls-34" d="M165.55,175.66C174.13,179,313.73,231,443.79,149.58a13.89,13.89,0,0,0,6.46-12.89c-.34-4.11-1.38-8.47-4.11-10.2-2.49-1.57-27.78,33.19-77,46-77.59,20.19-138.5,22-200-16-2.67-1.65-4-9-5-7-2.44,4.88-3.2,23.15.62,25.77A3.91,3.91,0,0,0,165.55,175.66Z"/><path class="cls-38" d="M314.55,192.42c-2.52-.34-4.61-1.55-4.68-4.06-.08-2.72,1.95-4.39,4.77-4.36,2.61,0,4.49,1.69,4.5,4.17S317.14,192,314.55,192.42Z"/><path class="cls-39" d="M375.12,171.69c3.15.21,5.11,1.46,4.81,4.25-.28,2.63-1.94,4.84-5,4.52-2.57-.26-5.19-1.6-4.91-4.64C370.28,172.94,372.65,171.87,375.12,171.69Z"/><path class="cls-40" d="M180.45,172.34c-.28,2.5-1.67,4.09-4.32,4.15-3.06.07-5-1.65-5.09-4.46-.08-2.62,2.23-3.66,4.62-3.85C178.64,167.94,180,169.79,180.45,172.34Z"/><path class="cls-41" d="M238.63,184.35c2.75,0,4.36,3.52,4.5,6,.15,2.79-1.81,1.56-4.27,1.78a4,4,0,0,1-4.58-3.93C234.07,185.38,236.38,184.67,238.63,184.35Z"/><path class="cls-39" d="M427.14,145.49c2.67-1.09,5.31-2.52,6.83,0s1.65,5.51-1.6,7.26c-2.77,1.48-5.83,1.39-7.64-1.25C422.77,148.66,424.84,147.64,427.14,145.49Z"/></svg>