<svg id="Camada_1" data-name="Camada 1" xmlns="http://www.w3.org/2000/svg" viewBox="0 0 634.28 334.44"><defs><style>.cls-1{fill:#1cdfed;}.cls-2{fill:#22c1cb;}.cls-3{fill:#33d9e4;}.cls-4{fill:#33d9e0;}.cls-5{fill:#0facba;}.cls-6{fill:#0b5459;}.cls-7{fill:#d8e9ea;}.cls-8{fill:#d7f7f6;}.cls-9{fill:#f7f9fa;}.cls-10{fill:#20c1cb;}.cls-11{fill:#c7185f;}.cls-12{fill:#570727;}.cls-13{fill:#d64378;}.cls-14{fill:#ea4983;}.cls-15{fill:#f46b96;}.cls-16{fill:#4ed9d6;}.cls-17{fill:#1fbfcc;}.cls-18{fill:#16f2f7;}.cls-19{fill:#026984;}.cls-20,.cls-21{fill:#059ece;}.cls-20{opacity:0.23;}.cls-22{fill:#0998ba;}.cls-23{fill:#035a75;}.cls-24{fill:#005271;}.cls-25{fill:#f4ed08;}.cls-26{fill:#f5ed07;}.cls-27{fill:#f2ec0a;}.cls-28{fill:#f9ee04;}</style></defs><title>nave3 + ET1</title><g id="ET1"><path class="cls-1" d="M273.76,196.16c-6.72-1.85-9.68.4-9,7.63.58,6.3-2.63,8.93-8.91,7.47-4.62-3.29-.16-10-5.06-13.23-6.36-4.37-9.63-1.74-11.17,4.91-1,4.37-1.31,9.82-8,8.55-6.06-1.16-4.88-7-4-10.22,6.81-25.4,4.91-51.28,5.11-77.05,0-4.56-.08-9.13-.13-13.69a3.83,3.83,0,0,1-.06-5c.2-21.86,18.61-44.2,34.2-45.79a6.22,6.22,0,0,0,3.1-1.16c8-5.87,17-5.69,26.27-3.35,1.51,2.37,3.77,3.44,6.34,4.53,20,8.49,31.14,23.26,31.75,45.37a5.44,5.44,0,0,1-.06,5.9q0,26.4.1,52.83c0,8.58-.9,16.93,5.1,24.82,3.92,5.16,2.37,12.48.31,18.87-1,2.95-2.68,4.31-5.88,4.15-3.49-.17-4.56-2.26-4.86-5.19-.19-1.91.08-3.93-.48-5.71-1.06-3.3-3.06-6.76-6.73-6.62s-5.82,3.19-6.12,7.11c-.35,4.76,1,10.88-6.87,10.42-6.33-.37-6.54-5.27-6.69-10.07-.11-3.6-.74-7.32-5.2-7.62-5.37-.37-5.56,4.35-6.4,7.87-1.58,6.67-2.55,13.82-12.08,7.52C275.29,205.51,278,199.62,273.76,196.16Z"/><path class="cls-2" d="M298.05,55.35c-2.5,5.6-16.54.69-25.05,3.33a.66.66,0,0,1-.82-.41.7.7,0,0,1,0-.35c2.11-8.88,14.1-8.75,16.61-17.29,4.35,0,4,2.6,3,5.51C291.26,51.08,298.56,54.26,298.05,55.35Z"/><path class="cls-3" d="M333.56,111c0-2,0-3.93.05-5.9,8.24,2.49,14.47-5.37,22.42-4.36,3.06,2.65,2.61,7,5,10-2.76,7.36-8.73,5.44-12.69,2.84C343.4,110.34,338.76,110.23,333.56,111Z"/><path class="cls-4" d="M232.54,104.93c0,1.67,0,3.34.06,5a23.56,23.56,0,0,0-14.72,3.32c-4,2.4-10.07,4.24-12.4-3.36,4.28-1.93,1.84-7.09,4.66-9.72C218.15,99.21,224.16,107.71,232.54,104.93Z"/><path class="cls-5" d="M209.86,99.86a4,4,0,0,1,1.78,3.43c0,3.38,3.22,7.08-.37,9.74-2.16,1.59-3.89-.77-5.63-2.33a3.92,3.92,0,0,1-1-1.44c-1.32-3.29-5.86-7.32-2.33-10C204.15,97.82,207.56,98.4,209.86,99.86Z"/><path class="cls-6" d="M318.81,151.07c5.92,6.12,3.39,12.36.86,22.17-1,3.69-7.87,3.69-12.26,3.69H307c-15.23-1.11-25.51-.06-38.85,0-.88,0-11.71.58-13.45-4.07-3.38-9-4-18.1,2.53-22.69a5.25,5.25,0,0,1,6.77.69c1.17,1.22,2.4,2.36,4.07,2.07a5.45,5.45,0,0,1,4.81,1.4l.91.88c2.33,2.33,4.8,3.45,7.48,2.1l11.86.39c2.95,2,4.66-.58,6.36-3.13a5.29,5.29,0,0,1,2.17-1.86h.06a5.27,5.27,0,0,1,4.26,0c2.33,1,3.76,0,5-1.42a5.31,5.31,0,0,1,7.49-.5A3.83,3.83,0,0,1,318.81,151.07Z"/><path class="cls-7" d="M314.31,147.37a37.66,37.66,0,0,1-.35,4.38c-.66,3.24-1.16,7.57-5.06,7.54s-4-4.49-4.69-7.66C306.12,146.76,309.9,146.32,314.31,147.37Z"/><path class="cls-8" d="M270.73,151.47c-1.43,3.14-1.39,8.77-6.2,7.51-4.51-1.17-3.62-6.63-3.9-10.62C265.43,144.73,267.89,148.72,270.73,151.47Z"/><circle class="cls-9" cx="287.3" cy="104.22" r="29.67"/><path class="cls-7" d="M300.24,153.49c.63,4.22.94,9.55-3.7,10.47-4.85,1-4.91-4.33-5.32-8Z"/><path class="cls-7" d="M283.07,156.07c-.51,3.26-.36,8.06-4.43,7.93-4.56-.15-4.65-5-4.84-8.78C277,154,280,155.34,283.07,156.07Z"/><path class="cls-10" d="M276.49,73c7-1.08,14-1.91,21.06-.31,13.44,5.61,22.05,14.72,22.69,30.12.55,13.28-4.43,23.57-15.86,30.31-15.5,9.13-34.11,5.09-44-9.18-10.42-15.06-7.61-33.89,7-45.43C270.12,76.3,273.43,74.78,276.49,73Z"/><path class="cls-9" d="M277.84,76.88c6-.93,11.91-1.63,17.9-.26,11.42,4.76,18.74,12.5,19.28,25.59.47,11.29-3.76,20-13.47,25.76-13.18,7.76-29,4.33-37.4-7.8-8.85-12.8-6.46-28.81,5.93-38.62C272.43,79.68,275.24,78.4,277.84,76.88Z"/><path class="cls-11" d="M297.57,102.83c6.74-3.43,9.48-1.33,7.24,5.81-2.86,9.08-9.28,13.74-19,13.16-9.25-.59-16.69-7.8-16.93-17-.25-9.52,4.4-15.89,13.69-18.61,8-2.37,9.8.47,6.43,7.66-.71,4.85-10.4,7-5.44,12.77C289.25,113.23,292.74,103.87,297.57,102.83Z"/><path class="cls-12" d="M297.57,102.83c-2.58,6.51-5,13.6-14.32,9.26-3.42-1.6-5.94-4.42-5.59-9,.58-7.32,6.67-7.26,11.34-9.21C290.41,98.21,293.69,100.8,297.57,102.83Z"/><path class="cls-5" d="M355.87,100.55a1.19,1.19,0,0,0-.4.78c-.25,3.45-6,7-2.49,10.94,2,2.32,4.82-.06,7.27-1.09.3-.13.77-.3.93-.58,1.82-3.07,4.72-6.06,1.53-9.82C360.59,98.3,358.13,98.53,355.87,100.55Z"/></g><path class="cls-13" d="M266.94,176.93s19.78-15.12,40.14,0Z"/><path class="cls-14" d="M281.5,171.91s2.44-1.59,10-1.1c7.12.47-2.53,2.54-3.19,2.72C286.61,174,276.67,174.5,281.5,171.91Z"/><ellipse class="cls-15" cx="291.3" cy="170.74" rx="1.16" ry="0.58" transform="translate(-17.07 33.21) rotate(-6.34)"/><path class="cls-16" d="M292,45.47s3.49-11.64,24.43-8.15c0,0-2.86-4.93,1.75-8,0,0-24.43-1.31-29.67,12.06Z"/><path class="cls-17" d="M314.94,32.88a4.16,4.16,0,0,1,1.89-3.58c2.58-1.67,7.43-3.8,11.36.33,5.65,5.95-.11,11.76-3.92,11.76C320.74,41.39,315.1,41.48,314.94,32.88Z"/><path class="cls-18" d="M246.94,143.43s-2.41-3.3-5.81,2.71a2.78,2.78,0,0,0-.3.88c-.26,1.71-.79,7.13,3.12,6.5C248.57,152.77,249.5,145.52,246.94,143.43Z"/><path class="cls-18" d="M334.18,133.88s-2.57,3.13,0,5.06"/><path class="cls-18" d="M334.18,160.06s-7.56,6.74.13,13.83"/><path class="cls-18" d="M232.07,173.9s5.79,5.66-.9,9"/><ellipse class="cls-18" cx="257.68" cy="74.32" rx="10.68" ry="5.15" transform="translate(19.26 197.12) rotate(-43.34)"/><path class="cls-19" d="M197.29,287c-18.95-1.87-37.95-3.36-56.83-5.69C106.2,277.11,72.66,270,41,256.27,30.76,251.79,21,246.51,12.7,239c-6.37-5.79-8-12.35-5.06-20.3A59.75,59.75,0,0,1,19.39,199.5a124.45,124.45,0,0,1,24.38-20.89c39.22-26,82.33-43.41,128.37-55,1,0,2.65.06,2,4-1,6-7.23,15.51-10.16,20.11-20.34,3.82-36.07,14.2-46.94,30.88-4.2,6.46.24,10.73,6.13,13.5,14,6.61,29.33,8.17,44.57,9.75,54.17,5.65,107.26-1.76,160.06-12.3,2.73-.2,5.45-.84,8.25-.47.27,0,.83.71,1-.15a2,2,0,0,1-2-1.36c1.74-3.95,5.67-3.12,8.88-3.61,25.18-3.85,49.39-10.6,72.27-21.49a125,125,0,0,0,15.28-8.71c16.07-10.6,21-15.51,14.68-29.15-.91-1.95-20-33-22.08-36.73,49.86-2.16,99,1.24,146.32,17.78,13.88,4.85,27,11,38.35,20.4,7.74,6.45,9,13.77,4.78,22.46-5.5,11.29-13.56,20.76-22.79,29.37-34.07,31.76-75.57,51.69-119.46,67.77L452,252.68c-7.74,5.61-17.14,7.15-26.14,9.57-46,12.34-92.91,19.82-140.5,23.61-24.76,2.29-49.55,3.76-74.42,3.74A44.79,44.79,0,0,1,197.29,287Z"/><path class="cls-20" d="M424.06,87.84a216.8,216.8,0,0,1,24.64,42.88c2.6,6.08,1.5,10.51-3.47,15.1-20.69,19.16-47,27.62-73.68,35-11.84,3.25-24.16,4.9-36.26,7.27-4.64,3.29-10.69.92-15.5,3.51-38.22,2.11-76.33,2.54-113.89-6.22-13.46-3.14-26.62-7.05-37.81-15.18-9.18-6.68-10.23-14.34-3.68-23,3.16-6.87,8.86-13.08,9.73-20.6.23-2,0-3-2-3,4.2-1.53,5.76-5.36,7.63-8.77,14-25.64,31.23-48.9,55.33-67,44.77-33.54,94.69-35,141.54-4.25C395.14,55.73,410.5,70.9,424.06,87.84Z"/><path class="cls-21" d="M286.62,283.3c52.15-4.58,103.53-13.05,153.7-27.64,3.85-1.12,7.78-2,11.68-3-11.23,17.24-28.13,28.38-46,38.37-11,6.18-22.52,11.54-34.9,14.94-26.31.82-51.8-2.81-75.82-13.46C291.4,290.81,284.65,290.46,286.62,283.3Z"/><path class="cls-22" d="M286.62,283.3c7,9.54,18.82,10.47,29,13.91,16.45,5.57,34.06,5.36,51.2,7.53a27.29,27.29,0,0,1,4.33,1.25c-61.18,20.62-119,13.35-173.83-19Q242,286.78,286.62,283.3Z"/><path class="cls-23" d="M164.41,147.17c-3.3,14.67-1.65,18.35,12.55,25.47,19.37,9.72,40.61,12.88,62,15.56,27,3.4,54.2,1.44,81.31,1.69,3.43-.5,7.26-2.87,9.58,1.86-24.94,4.87-49.93,9.9-75.26,12-26.64,2.22-53.35,4-80.25,1-17-1.9-34-3.06-50.09-9.3-13.5-5.24-15.48-10.89-7.08-22.27,10.42-14.12,26-21.63,42.05-28.41C162.1,143.51,164,143.73,164.41,147.17Z"/><path class="cls-24" d="M329.82,191.75c-2.68-3-6.38-1.24-9.58-1.86,4.7-3,10-1.19,15.05-1.82l6.34.6Z"/><line class="cls-19" x1="445.93" y1="124.53" x2="444.14" y2="125.57"/><path class="cls-21" d="M165.55,173.74c8.58,3.32,148.18,55.36,278.24-26.08a13.89,13.89,0,0,0,6.46-12.89c-.34-4.11-1.38-8.47-4.11-10.2-2.49-1.57-27.78,33.2-77,46-77.59,20.19-138.5,22-200-16-2.67-1.64-4-9-5-7-2.44,4.88-3.2,23.15.62,25.77A3.91,3.91,0,0,0,165.55,173.74Z"/><path class="cls-25" d="M314.55,190.5c-2.52-.33-4.61-1.54-4.68-4.06-.08-2.71,1.95-4.38,4.77-4.36,2.61,0,4.49,1.69,4.5,4.17S317.14,190.08,314.55,190.5Z"/><path class="cls-26" d="M375.12,169.77c3.15.22,5.11,1.46,4.81,4.26-.28,2.62-1.94,4.83-5,4.51-2.57-.26-5.19-1.6-4.91-4.64C370.28,171,372.65,170,375.12,169.77Z"/><path class="cls-27" d="M180.45,170.42c-.28,2.51-1.67,4.09-4.32,4.15-3.06.07-5-1.65-5.09-4.46-.08-2.62,2.23-3.66,4.62-3.85C178.64,166,180,167.88,180.45,170.42Z"/><path class="cls-28" d="M238.63,182.43c2.75,0,4.36,3.52,4.5,6,.15,2.79-1.81,1.57-4.27,1.78a4,4,0,0,1-4.58-3.92C234.07,183.46,236.38,182.75,238.63,182.43Z"/><path class="cls-26" d="M427.14,143.57c2.67-1.08,5.31-2.52,6.83,0s1.65,5.52-1.6,7.26c-2.77,1.49-5.83,1.39-7.64-1.25C422.77,146.75,424.84,145.72,427.14,143.57Z"/></svg>