<svg id="Camada_1" data-name="Camada 1" xmlns="http://www.w3.org/2000/svg" viewBox="0 0 634.28 333.44"><defs><style>.cls-1{fill:#1cdfed;}.cls-2{fill:#22c1cb;}.cls-3{fill:#33d9e4;}.cls-4{fill:#33d9e0;}.cls-5{fill:#0facba;}.cls-6{fill:#0b5459;}.cls-7{fill:#d8e9ea;}.cls-8{fill:#d7f7f6;}.cls-9{fill:#f7f9fa;}.cls-10{fill:#20c1cb;}.cls-11{fill:#c7185f;}.cls-12{fill:#570727;}.cls-13{fill:#d64378;}.cls-14{fill:#ea4983;}.cls-15{fill:#f46b96;}.cls-16{fill:#4ed9d6;}.cls-17{fill:#1fbfcc;}.cls-18{fill:#16f2f7;}.cls-19{fill:#7fd3b7;}.cls-20{fill:#a6eff6;opacity:0.23;}.cls-21{fill:#efae97;}.cls-22{fill:#f0b098;}.cls-23{fill:#efaf96;}.cls-24{fill:#4fa382;}.cls-25{fill:#fef597;}.cls-26{fill:#c5ffe9;}.cls-27{fill:#7fd4d7;}.cls-27,.cls-28{opacity:0.48;}.cls-28{fill:#81d5d8;}.cls-29{fill:#fef596;}</style></defs><title>nave2 + ET1</title><g id="ET1"><path class="cls-1" d="M305,197.16c-6.72-1.85-9.68.4-9,7.63.59,6.3-2.62,8.93-8.9,7.47-4.62-3.29-.16-10-5.06-13.23-6.37-4.37-9.63-1.74-11.18,4.91-1,4.37-1.31,9.82-7.95,8.55-6.06-1.16-4.88-7-4-10.22,6.81-25.4,4.91-51.28,5.11-77.05,0-4.56-.08-9.13-.13-13.69a3.83,3.83,0,0,1-.06-5c.2-21.86,18.61-44.2,34.2-45.79a6.22,6.22,0,0,0,3.1-1.16c8-5.87,17-5.69,26.26-3.35,1.52,2.37,3.78,3.44,6.35,4.53,20,8.49,31.14,23.26,31.74,45.37a5.44,5.44,0,0,1-.05,5.9q0,26.4.09,52.83c0,8.58-.89,16.93,5.11,24.82,3.92,5.16,2.36,12.48.3,18.87-.95,2.95-2.68,4.31-5.88,4.15-3.49-.17-4.56-2.26-4.85-5.19-.2-1.91.08-3.93-.49-5.71-1.05-3.3-3.06-6.76-6.72-6.62s-5.82,3.19-6.13,7.11c-.34,4.76,1,10.88-6.87,10.42-6.32-.37-6.53-5.27-6.69-10.07-.11-3.6-.73-7.32-5.2-7.62-5.36-.37-5.55,4.35-6.39,7.87-1.58,6.67-2.55,13.82-12.09,7.52C306.57,206.51,309.27,200.62,305,197.16Z"/><path class="cls-2" d="M329.33,56.35c-2.5,5.6-16.55.69-25.06,3.33a.65.65,0,0,1-.81-.41.7.7,0,0,1,0-.35c2.11-8.88,14.1-8.75,16.6-17.29,4.36,0,4,2.6,3,5.51C322.54,52.08,329.83,55.26,329.33,56.35Z"/><path class="cls-3" d="M364.83,112c0-2,0-3.93.06-5.9,8.24,2.49,14.47-5.37,22.42-4.36,3.05,2.65,2.61,7,5,10-2.77,7.36-8.73,5.44-12.69,2.84C374.68,111.34,370,111.23,364.83,112Z"/><path class="cls-4" d="M263.82,105.93c0,1.67,0,3.34.06,5a23.56,23.56,0,0,0-14.72,3.32c-4,2.4-10.07,4.24-12.4-3.36,4.28-1.93,1.84-7.09,4.66-9.72C249.43,100.21,255.43,108.71,263.82,105.93Z"/><path class="cls-5" d="M241.14,100.86a4,4,0,0,1,1.78,3.43c0,3.38,3.21,7.08-.38,9.74-2.15,1.59-3.89-.77-5.62-2.33a3.92,3.92,0,0,1-1-1.44c-1.32-3.29-5.87-7.32-2.33-10C235.43,98.82,238.83,99.4,241.14,100.86Z"/><path class="cls-6" d="M350.09,152.07c5.91,6.12,3.39,12.36.85,22.17-.95,3.69-7.86,3.69-12.25,3.69h-.39c-15.23-1.11-25.5-.06-38.84,0-.88,0-11.71.58-13.46-4.07-3.37-9-4-18.1,2.53-22.69a5.26,5.26,0,0,1,6.78.69c1.16,1.22,2.4,2.36,4.07,2.07a5.45,5.45,0,0,1,4.81,1.4l.91.88c2.33,2.33,4.79,3.45,7.47,2.1l11.87.39c2.95,2,4.65-.58,6.36-3.13a5.22,5.22,0,0,1,2.17-1.86H333a5.27,5.27,0,0,1,4.26,0c2.33,1,3.76,0,5-1.42a5.3,5.3,0,0,1,7.49-.5A3.83,3.83,0,0,1,350.09,152.07Z"/><path class="cls-7" d="M345.59,148.37a37.66,37.66,0,0,1-.35,4.38c-.66,3.24-1.17,7.57-5.06,7.54s-4-4.49-4.69-7.66C337.4,147.76,341.18,147.32,345.59,148.37Z"/><path class="cls-8" d="M302,152.47c-1.44,3.14-1.39,8.77-6.21,7.51-4.5-1.17-3.61-6.63-3.89-10.62C296.71,145.73,299.17,149.72,302,152.47Z"/><circle class="cls-9" cx="318.58" cy="105.22" r="29.67"/><path class="cls-7" d="M331.52,154.49c.63,4.22.94,9.55-3.7,10.47-4.85,1-4.91-4.33-5.32-8Z"/><path class="cls-7" d="M314.35,157.07c-.51,3.26-.36,8.06-4.43,7.93-4.56-.15-4.65-5-4.84-8.78C308.31,155,311.3,156.34,314.35,157.07Z"/><path class="cls-10" d="M307.77,74c7-1.08,14-1.91,21.06-.31,13.44,5.61,22,14.72,22.68,30.12.56,13.28-4.42,23.57-15.85,30.31-15.5,9.13-34.11,5.09-44-9.18-10.42-15.06-7.61-33.89,7-45.43C301.4,77.3,304.71,75.78,307.77,74Z"/><path class="cls-9" d="M309.12,77.88c6-.93,11.91-1.63,17.9-.26,11.42,4.76,18.73,12.5,19.28,25.59.47,11.29-3.76,20-13.47,25.76-13.18,7.76-29,4.33-37.4-7.8-8.85-12.8-6.47-28.81,5.93-38.62C303.71,80.68,306.52,79.4,309.12,77.88Z"/><path class="cls-11" d="M328.84,103.83c6.75-3.43,9.49-1.33,7.25,5.81-2.86,9.08-9.28,13.74-19,13.16-9.25-.59-16.69-7.8-16.93-17-.25-9.52,4.4-15.89,13.69-18.61,8-2.37,9.8.47,6.43,7.66-.71,4.85-10.4,7-5.44,12.77C320.53,114.23,324,104.87,328.84,103.83Z"/><path class="cls-12" d="M328.84,103.83c-2.57,6.51-5,13.6-14.31,9.26-3.42-1.6-5.94-4.42-5.59-9,.58-7.32,6.67-7.26,11.34-9.21C321.69,99.21,325,101.8,328.84,103.83Z"/><path class="cls-5" d="M387.15,101.55a1.19,1.19,0,0,0-.4.78c-.25,3.45-5.95,7-2.49,10.94,2,2.32,4.82-.06,7.27-1.09.3-.13.77-.3.92-.58,1.82-3.07,4.73-6.06,1.54-9.82C391.87,99.3,389.41,99.53,387.15,101.55Z"/></g><path class="cls-13" d="M298.22,177.93s19.78-15.12,40.14,0Z"/><path class="cls-14" d="M312.78,172.91s2.44-1.59,10-1.1c7.12.47-2.54,2.54-3.19,2.72C317.89,175,307.94,175.5,312.78,172.91Z"/><ellipse class="cls-15" cx="322.58" cy="171.74" rx="1.16" ry="0.58" transform="translate(-16.99 36.67) rotate(-6.34)"/><path class="cls-16" d="M323.23,46.47s3.49-11.64,24.43-8.15c0,0-2.87-4.93,1.75-8,0,0-24.43-1.31-29.67,12.06Z"/><path class="cls-17" d="M346.21,33.88a4.21,4.21,0,0,1,1.89-3.58c2.59-1.67,7.43-3.8,11.37.33,5.64,5.95-.12,11.76-3.93,11.76C352,42.39,346.38,42.48,346.21,33.88Z"/><path class="cls-18" d="M278.22,144.43s-2.41-3.3-5.82,2.71a2.53,2.53,0,0,0-.29.88c-.26,1.71-.79,7.13,3.12,6.5C279.85,153.77,280.77,146.52,278.22,144.43Z"/><path class="cls-18" d="M365.46,134.88s-2.57,3.13,0,5.06"/><path class="cls-18" d="M365.46,161.06s-7.57,6.74.13,13.83"/><path class="cls-18" d="M263.35,174.9s5.78,5.66-.91,9"/><ellipse class="cls-18" cx="288.95" cy="75.32" rx="10.68" ry="5.15" transform="translate(27.1 218.86) rotate(-43.34)"/><path class="cls-19" d="M421.62,247.29c-58.71,2.21-117.46,1.62-176.2,1.6-8.7,0-17.42.39-26-1.48-17.39.17-34.71-.35-51.77-4.28-1.06-.24-2.4.7-3.62,1.08a7.09,7.09,0,0,1-3.21-1.56c-9-5.72-19.57-7.63-29.35-11.44-24.88-9.7-49.82-19.21-72-34.45-7-4.79-13.82-9.69-18.66-16.91-9-13.48-6.56-27.57,6.28-37.5,18.83-14.56,40.87-22,63.2-28.58,23.24-6.85,47-11.71,70.87-15.86a65,65,0,0,1,7.92-.43,3.61,3.61,0,0,1-.13,3.75,262.08,262.08,0,0,0-18.55,47.88,6,6,0,0,1-2.08,3.29c-2.23,1.36-6.46.2-6.25,4.62.17,3.56,3.12,4.7,5.88,5.65a476.61,476.61,0,0,0,57.42,15.4,600.54,600.54,0,0,0,77.58,11.54,8,8,0,0,1,3.73,1.22c2.3,2.76.61,5.6,0,8.29a45.72,45.72,0,0,0,.25,23.57c1.25,4.35,2.51,9.31,8.29,9.17s7-5.11,8-9.48c1.61-6.7,2.8-13.46.88-20.41-.82-3-1.86-6.2.22-9.22,5.2-3,10.89-1.55,16.37-1.71,33.05-.93,65.5-5.33,96.84-16.32a172.32,172.32,0,0,0,41.82-21c2.08-1.45,5.5-2.65,4.65-5.7-.72-2.59-4.27-1.17-6.38-2.13-2.48-2-2.92-4.94-3.68-7.72a213.49,213.49,0,0,0-10.52-29.09c-1.35-3.09-3.34-6.14-1.82-9.79,31.32,1.11,61,9.23,89.51,21.68,13.81,6,27.89,11.57,39.72,21.35A73.72,73.72,0,0,1,611.41,169c7.67,16.94-.34,31.37-12.93,40-19.18,13.12-41.17,19.23-63.5,23.76a722,722,0,0,1-86.89,11.8C439.34,245.26,430.14,243.74,421.62,247.29Z"/><path class="cls-20" d="M169.25,151.91c3.53-19.44,11.21-37.28,20.74-54.43,15.78-28.32,36.28-52.14,65.8-66.74,24.09-11.92,49.63-14.89,76.34-11.59,24.07,3,47.27,8.36,69,19.19,25.07,12.49,44.57,30.86,58,55.54,1,1.86,2.23,3.59,3.35,5.39,6.18,15,13.21,29.77,16,46-.73,3.58-3.71,5-6.44,6.57C433.88,174,392.86,185.62,348.54,186c-34.79.28-69.47-.71-103.82-6.66-23.58-4.09-46.76-9.78-68.25-20.81C173.55,157,169.77,156.16,169.25,151.91Z"/><path class="cls-21" d="M160.8,242.65c2-1.43,2.89-.5,3.21,1.56-1.09,9.69-2.25,19.36-3.25,29.06-.5,4.93-1,9.52,3.35,13.83s2.83,9.4-1.66,13.13c-4.33,3.61-8.86,3.13-12.75-.83s-5-10.19-.45-12.42c10-4.89,7.89-13.86,9.33-21.53C160,258,160.11,250.26,160.8,242.65Z"/><path class="cls-22" d="M486.56,239.85c1.31,9.5,2.55,23.76,3.49,33.29.4,4.07,1.53,6.61,5.3,8.78,6,3.48,7.11,9.15,3.59,14-3.38,4.68-9.59,5.75-13.84,2-5.05-4.4-5.71-9.63-.79-14.38,4-3.9,2.66-8.17,2.15-12.51-1-8.78-2.61-22.37-2.19-31.26C485.08,239.82,485.75,239.89,486.56,239.85Z"/><path class="cls-23" d="M326.49,249c0,12.42-.6,31.81-.3,43.2.19,7.25-2.31,14.84,5.23,21.06,3.13,2.58,2.78,9.44-2.15,12.49-3.95,2.44-9,2.78-12.33-1.15s-3.92-9.8.19-12.81c6.1-4.49,5.81-10.1,5.8-16.19,0-10.06.81-20.14.12-30.17C321.91,249,319.63,249,326.49,249Z"/><path class="cls-24" d="M168.29,151.91c20.78,13.07,44.14,18.92,67.78,23.65,41,8.21,82.61,9.64,124.26,7.76,42.43-1.92,81.38-15.42,117.22-38.07a36.93,36.93,0,0,1,5.3-1.39c2.45-.28,4.9,0,5.75,2.94.75,2.54-1.06,3.92-2.8,5.15a189.17,189.17,0,0,1-29.33,17.25c-28.83,13.43-59.38,19.71-90.89,22.53-13.72,1.23-27.44.88-41.15,1.53-6.05,2.87-11.8,1-17.55-1.11A623.43,623.43,0,0,1,170.42,166c-2-.63-4-1.28-6-1.93-5.34-1.7-7.09-5.56-5.35-10.52C160.92,148.24,164.89,150.83,168.29,151.91Z"/><path class="cls-25" d="M178.41,181.9c13.2,0,17.93,7.75,12.12,19.85-6,12.54-21.2,20.59-34.85,18.47-7.51-1.17-10.87-7.32-9-15.51C149.4,193,165.63,180,178.41,181.9Z"/><path class="cls-25" d="M436.28,183.7a27.42,27.42,0,0,1,3.08.82c15.05,5.41,25.23,15.71,30.79,30.68,1.64,4.39,1.16,8.5-2.15,11.72s-7.41,3.53-11.78,1.85c-14.9-5.69-25.35-15.84-30.46-31C423.07,189.83,427.8,183.48,436.28,183.7Z"/><path class="cls-25" d="M535.72,158c-9.64.88-18.51-1.08-25.7-7.94-6.59-6.29-5.4-14.58,2.52-19,10.46-5.9,31.8-3.28,40.54,5a12.49,12.49,0,0,1,3.58,13.1c-1.58,5.64-6.55,7.5-11.43,8.71C542.23,158.58,538.9,158,535.72,158Z"/><path class="cls-26" d="M118.81,220c15.69,3.72,31,8.4,46.74,11.71,20.38,4.28,40.93,7.13,61.64,9.44,33.55,3.76,67.18,3.72,100.73,2.64,31.34-1,62.69-2.85,94-5.66,22.58-2,45.16-4.1,67.61-7,29-3.75,57.87-8.76,85.85-17.76,1.21-.39,2.42-.75,4.53-1.4-4.89,4-15,7.46-25.53,9.83-32.67,7.4-65.79,12.26-99,15.61-23.33,2.35-46.81,3.73-70.21,5.49a1155,1155,0,0,1-127.79,2.45c-45.91-1.64-91.43-7.74-135-23.69C121.11,221.22,120,220.57,118.81,220Z"/><path class="cls-25" d="M306.88,192.15c5.93-.84,11.73.34,17.55,1.11,3,11.09,4.07,22.2-.07,33.25-1.6,4.28-3.53,8.19-9.29,8.23s-7.92-3.76-9.37-8.09C301.8,215.05,301.72,203.48,306.88,192.15Z"/><path class="cls-27" d="M405.34,52.15c6.45.4,11.3,3.73,15.61,7.45,17.47,15.09,30.68,33.48,40.68,54.22.46,1,1.19,2,1.16,2.93-.11,3.47,2.49,8.83-1.46,9.86-3.48.91-3.76-4.56-4.78-7.75-4.2-13.12-12.84-23.46-21.24-34C426.08,73.24,414.9,63.5,405.34,52.15Z"/><path class="cls-28" d="M466.44,145a6.38,6.38,0,0,1-4.91-6.35c-.12-3.33.91-5.81,4.75-5.85,2.8,0,5,1.42,4.37,4.26S470.18,143.51,466.44,145Z"/><path class="cls-29" d="M97.71,170.86c-8.41-.32-17.42-.67-25.49-5.7-8.88-5.52-9.14-16,.31-20.66,16.9-8.23,34.3-8.35,51.17.12,9.31,4.68,8.86,15.22-.15,20.67C115.72,170,107.05,170.56,97.71,170.86Z"/></svg>