<svg id="Camada_1" data-name="Camada 1" xmlns="http://www.w3.org/2000/svg" viewBox="0 0 634.28 336.04"><defs><style>.cls-1{fill:#f0b098;}.cls-2{fill:#fef597;}.cls-3{fill:#81d5d8;}.cls-3,.cls-41{opacity:0.48;}.cls-4{fill:#ab6cba;}.cls-5{fill:#743f89;}.cls-6{fill:#bd66e1;}.cls-7{fill:#be66e0;}.cls-8{fill:#a860c2;}.cls-9{fill:#a960c6;}.cls-10{fill:#a55cc2;}.cls-11{fill:#8849a0;}.cls-12{fill:#864b9a;}.cls-13{fill:#85479a;}.cls-14{fill:#bb69d7;}.cls-15{fill:#a370ac;}.cls-16{fill:#bb6bd7;}.cls-17{fill:#a471ac;}.cls-18{fill:#a672ac;}.cls-19{fill:#87479d;}.cls-20{fill:#884aa0;}.cls-21{fill:#8b4c9f;}.cls-22{fill:#90618e;}.cls-23{fill:#90658c;}.cls-24{fill:#845682;}.cls-25{fill:#855583;}.cls-26{fill:#9259a1;}.cls-27{fill:#9650b4;}.cls-28{fill:#422350;}.cls-29{fill:#f8f0f9;}.cls-30{fill:#8c47a9;}.cls-31{fill:#73348b;}.cls-32{fill:#9548ae;}.cls-33{fill:#ebebf3;}.cls-34{fill:#5bac81;}.cls-35{fill:#7fd3b7;}.cls-36{fill:#a6eff6;opacity:0.23;}.cls-37{fill:#efae97;}.cls-38{fill:#efaf96;}.cls-39{fill:#4fa382;}.cls-40{fill:#c5ffe9;}.cls-41{fill:#7fd4d7;}.cls-42{fill:#fef596;}</style></defs><title>nave2 + ET2</title><path class="cls-1" d="M486.56,242.46c1.31,9.49,2.55,23.76,3.49,33.29.4,4.06,1.53,6.6,5.3,8.77,6,3.48,7.11,9.15,3.59,14-3.38,4.69-9.59,5.75-13.84,2-5.05-4.4-5.71-9.62-.79-14.37,4-3.9,2.66-8.18,2.15-12.52-1-8.78-2.61-22.37-2.19-31.25C485.08,242.43,485.75,242.49,486.56,242.46Z"/><path class="cls-2" d="M535.72,160.58c-9.64.88-18.51-1.07-25.7-7.94-6.59-6.29-5.4-14.57,2.52-19,10.46-5.9,31.8-3.28,40.54,5a12.5,12.5,0,0,1,3.58,13.11c-1.58,5.63-6.55,7.49-11.43,8.7C542.23,161.19,538.9,160.58,535.72,160.58Z"/><path class="cls-3" d="M466.44,147.56a6.38,6.38,0,0,1-4.91-6.35c-.12-3.33.91-5.81,4.75-5.85,2.8,0,5,1.42,4.37,4.27S470.18,146.11,466.44,147.56Z"/><g id="ET2"><path class="cls-4" d="M264.32,106.52q1.35-5.85,2.69-11.7c-6.63.25-11.16-3.48-15.4-7.85-8.61,6.51-6.63,14-2,21.73C254.4,107.16,258.5,101,264.32,106.52Z"/><path class="cls-5" d="M249.63,108.7c-.12-7.32-2.56-14.84,2-21.73-.28-3.85.25-9.31-4.87-9.15-5.38.17-3.85,6-4,9.47a120.93,120.93,0,0,0,.85,18.25C244,108.65,245.39,111.92,249.63,108.7Z"/><path class="cls-6" d="M378.87,140.36c-.21,10.54,1.3,21.37-4.26,31.12a1.23,1.23,0,0,1-.83.57c-10.64,1.78-14,8.29-13.69,17.24l-7.55,14.37c-9,5.81-18.56,10-29.85,7.9l-15.93-.14c-11.95,2.38-21.72-1.81-30.05-10.31a1.78,1.78,0,0,1-.21-.27L274,196.31l0-.09c-2.87-4.21-5.38-8.78-10.37-10.95a1.08,1.08,0,0,1-.43-.33c-2.79-3.46-3.74-4.28-4.42-6.87a1.19,1.19,0,0,1,.14-.92,64.26,64.26,0,0,1,3.92-6c6.36-7.79,3.64-13.26-4.58-17.23-3-1.44-6.42-2.15-8.39-5.2a1.12,1.12,0,0,1-.18-.42c-.52-2.27-.63-4.6-1.24-6.85a1,1,0,0,1,0-.35c.59-7.71.29-15.71,6.67-21.61a1,1,0,0,0,.25-.33l5.89-12.4a19.88,19.88,0,0,0,2.42-10.08c0-.47,0-.67.74-1.07,1-.53,1-.53,1.67-.27a33.92,33.92,0,0,1,3.26-1.87,1.27,1.27,0,0,1,.51-.12c12.57-.31,23.9-2,26-18.09.57-4.42,5.9-8.77,9.67-5.89,9.23,7.11,24.12-9.31,28.52,4.72,4.92,15.67,12.8,20.15,27.44,17.43,1.77-.33,3.3.82,4.73,1.81v-.17c3.22,3.13,4.91,6.63,3.1,10.87l-.31,4.84c1.93,5.29-2,12.07,4.13,16.27,5.08,3.68,11.88,6.67,6.06,14.59A1.1,1.1,0,0,0,378.87,140.36Z"/><path class="cls-7" d="M348.16,216.43c8.52-.09,17.06,0,25.57-.33s14.92,2.64,18.11,11c5.26,8.1,0,9.88-6.46,9.81-6.12-.07-11.26.24-11.73,8-17.35,3.56-33.23-.66-48.31-9.11-5.5-3.08-8.41-6.53-1.55-11.32C330.53,217.59,338.31,213.89,348.16,216.43Z"/><path class="cls-8" d="M378.88,140c2.5-9-5.9-9.15-10.2-12.6,2.28-3.92,6.19-5.5,10.12-7.06,20.89,4.49,32.53,18.22,34,40.09.33,4.75.74,9.51,1.13,14.27-6.51,2-8.26-2.56-9.89-7.25C401.12,153.29,396.35,140.8,378.88,140Z"/><path class="cls-9" d="M366.15,93.29c-22.89,6.21-25.71,4.75-34.5-18.71-1.2-3.18-2.63-4.21-5.63-2.53-.74.43-1.48,1.39-2.21,1.35-15.36-1-27.67.87-33.16,19.33-2.09,7-14.26,2.61-21.88,3.07-2.45-4.09.14-6,3.29-7.67,17-3,17.18-3.23,15.86-20.27.57-4,3.84-4.42,6.84-5.15l1.53-8.11c4.8.35,5.45,6,9.45,7.37,7.66,7.43,14.67,2.64,21.74-1.17,2.45-.73,4.65.45,6.93,1l2.84,1.05c2.95,2.21,3.25,5.44,3.48,8.71,1.64,14,2.64,14.84,18.14,15.79a9.46,9.46,0,0,1,6.63,3.56A13.29,13.29,0,0,1,366.15,93.29Z"/><path class="cls-10" d="M255.2,119.33c-3.09,6.84.24,15.21-5.16,21.51-2.45,2.1-5.85.56-8.41,2.21-11.13,4.11-12.73,14.22-15,23.88-2.77,5.41-5.31,3-7.84-.22C217.68,139,229.47,123.65,255.2,119.33Z"/><path class="cls-11" d="M250.7,148.88a2.3,2.3,0,0,1,.74,0c3.25.61,6.53,1.13,9.76,1.87,6.51,1.47,9.39,6.58,9.74,12.33.46,7.6-4.5,11.61-10.88,14a1.58,1.58,0,0,1-2-.84L250.67,159a1.15,1.15,0,0,1-.1-.33C250.05,155.84,248.38,149.18,250.7,148.88Z"/><path class="cls-12" d="M307.06,222.59c-9,.82-16.68-3.58-24.79-6.16L276.6,201l30.79,10.32C307.32,214.29,307.06,222.55,307.06,222.59Z"/><path class="cls-13" d="M348.16,216.43l-24.37,8q-.1-6.36-.2-12.74c9.58-3.84,19.11-8,29.65-8.51Z"/><path class="cls-14" d="M218.77,166.71c2.58,1.57,5.16,2,7.85.22,1.09,5.4,7.46,8.71,6,15.12,1.82,4.42,1.33,8.15-3.41,10.47l-9.79-1.72c-5.23,1.62-6.09-2.87-8.1-5.78Z"/><path class="cls-15" d="M334.4,61.7c-1.9,2.86-3.68,2.55-5.38-.2a4.78,4.78,0,0,1-1.8-1.85c-2.37-5.9-3.21-13.5-12.16-12.85-9.71.7-9.31,8.71-10.48,15.47a4.13,4.13,0,0,1-1.42,2.15c-5.21-1.24-4.79-6.4-6.89-9.86,1.48-12.71,9.49-18.34,21.37-17.88C328.69,37.11,334.59,46.67,334.4,61.7Z"/><path class="cls-16" d="M404.08,167.44l9.89,7.25c2.62,1.93,2.13,4.76,2.15,7.44,1.95,4.53,1.37,8.29-3.28,10.82l-10.17-2c-4.79.79-7.1-1.62-7.84-6.06Z"/><path class="cls-17" d="M294.75,62.68,289.88,67c-1.38,1.34-3.09,1.31-4.84,1.23-14.4-.66-17.47,3.47-12,16.36.84,2,2.18,3.77,1.25,6.08-3.21.23-5.16,1.81-5.49,5.16L266,95.37c-.13-1.3.15-2.85-.48-3.83-6.22-9.68-8.16-19.34.74-28.4C275.41,53.78,285.15,57.38,294.75,62.68Z"/><path class="cls-18" d="M337.11,72.45c0-3.22.09-6.45.14-9.67,9-6.79,18.48-7.9,27,.14,9,8.47,8.25,18.27,1.26,27.92l-8.2-.35c-1.34-6.78,8-12.84.58-20.36C349.39,61.61,344.17,73.42,337.11,72.45Z"/><path class="cls-19" d="M373.64,244.88c-1.95-3-6.45-5.44-3.23-9.82,3-4.07,7.76-3.16,11.83-2.48,5,.84,10.64,3.84,9.58-5.5a10.2,10.2,0,0,1,8.11,1c3.89,6.09-3.61,4.58-4.84,7.26,0,3,7.74,9-3.52,7.67C385.77,242.27,379.64,244.17,373.64,244.88Z"/><path class="cls-20" d="M358.33,193.16c-4.7-5.68-5.37-11.51.48-18.07,4.33-4.85,9.21-7.75,15.52-3.12C372,180.54,366.07,188.09,358.33,193.16Z"/><path class="cls-4" d="M368.81,104.84q-1.33-5.86-2.69-11.72c6.6.25,11.16-3.47,15.4-7.85,8.61,6.52,6.63,14,2,21.73C378.73,105.46,374.64,99.28,368.81,104.84Z"/><path class="cls-5" d="M383.51,107c.1-7.31,2.56-14.84-2-21.73.29-3.85-.24-9.3,4.88-9.14,5.38.16,3.85,6,4,9.47a122.33,122.33,0,0,1-.86,18.25C389.15,107,387.74,110.23,383.51,107Z"/><path class="cls-21" d="M378.8,120.33c-2.12,4.16-4.33,8.19-10.13,7.06-7.37-6.33-3.17-12.56.14-18.81C374,110.91,372.37,119.05,378.8,120.33Z"/><path class="cls-22" d="M229.22,192.52q1.71-5.24,3.41-10.47c7.69,4.86,8,12,6.53,20.74C233.81,200.43,232,196,229.22,192.52Z"/><path class="cls-23" d="M412.84,193q1.65-5.4,3.28-10.82c7.05,8,7.05,8,6.54,19.79C416.83,201.65,416,196,412.84,193Z"/><path class="cls-24" d="M211.35,185c4,.08,5.07,4.29,8.1,5.78-3.41,3.53-5.12,8.66-10.31,11.18C206.9,195.63,207.69,190.15,211.35,185Z"/><path class="cls-25" d="M394.83,184.89l7.84,6.06-9.8,12.35C390.58,195.75,390.58,190.19,394.83,184.89Z"/><path class="cls-19" d="M395.09,235.31l4.84-7.26c4.57,1.32,8.85,3,11.39,8.87Z"/><path class="cls-26" d="M263.34,185.19c8.11-.65,11.38,3.29,10.66,11.09C270.39,193.16,265.33,188.08,263.34,185.19Z"/><path class="cls-27" d="M314,201c-14.43.87-25.31-4.93-32.35-17.55-6-10.84-2.84-21,8.47-25.65,16.43-6.69,33.43-5.81,49.78-.5,14,4.55,16.77,17.86,7.37,29.4C339,196.86,329.22,201.07,314,201Z"/><path class="cls-28" d="M351,121.47c-1.63,15.56-13.86,20.15-25.88,24.65-16.14,6-44.81-6.75-46-24.78,13.89,1.66,27.84,2.45,41.78,3.32C331.53,125.32,340.71,119.17,351,121.47Z"/><path class="cls-29" d="M350.58,121.66c-23.66,10.59-47.29,10.69-70.92-.07a2.13,2.13,0,0,1-.86-.74c-1.57-2.26-4.56-3.94-4.43-6.91a2,2,0,0,1,2.15-1.87,1.86,1.86,0,0,1,.47.09c33.37,10.36,47.83,10.32,76.87-.4a2,2,0,0,1,2.6,1.19,1.9,1.9,0,0,1,.12.82c-.26,3.21-3.28,5-5.29,7.37A2,2,0,0,1,350.58,121.66Z"/><path class="cls-30" d="M360.53,147.41c-.32,2.87-1.72,5.08-4.66,5.25-3.74.19-5.35-2.44-5.34-5.78,0-2.81,1.64-5.1,4.57-5.25C358.81,141.45,360.24,144,360.53,147.41Z"/><path class="cls-31" d="M296.46,105.76c.53-2.88,2.12-4.09,4.42-4.14,3.27-.08,5.89,1.37,6.47,4.7.53,3.1-1.57,4.75-4.49,4.42C299.68,110.43,297.89,108,296.46,105.76Z"/><path class="cls-32" d="M273.11,130.46a4.89,4.89,0,0,1-5.35,4.36c-2.49,0-4-1.56-3.72-4.18.31-3,2.15-4.83,5.15-4.64C271.47,126.16,273,127.76,273.11,130.46Z"/><circle class="cls-33" cx="278.84" cy="76.45" r="15.22"/><circle class="cls-34" cx="278" cy="77.3" r="7.61"/><circle class="cls-33" cx="315.63" cy="54.47" r="15.22"/><circle class="cls-34" cx="315.63" cy="53.62" r="7.61"/><circle class="cls-33" cx="351.57" cy="76.45" r="15.22"/><circle class="cls-34" cx="350.72" cy="77.3" r="7.61"/><path class="cls-31" d="M334.49,105.76c-.54-2.88-2.12-4.09-4.42-4.14-3.27-.08-5.89,1.37-6.48,4.7-.53,3.1,1.57,4.75,4.5,4.42C331.27,110.43,333.05,108,334.49,105.76Z"/><path class="cls-7" d="M255.89,216.09c-8.54-.29-14.91,2.63-18.11,11-5.26,8.11,0,9.88,6.46,9.81,6.12-.06,11.26.25,11.73,8,17.35,3.56,33.23-.65,48.31-9.11,5.5-3.08,8.41-6.52,1.56-11.31-8.4-4.24-15.16-9.32-24.38-8"/><path class="cls-19" d="M256,244.88c2-3,6.45-5.44,3.23-9.82-3-4.07-7.76-3.16-11.84-2.48-5,.84-10.64,3.84-9.58-5.5a10.18,10.18,0,0,0-8.1,1c-3.9,6.09,3.61,4.58,4.84,7.26,0,3-7.74,9,3.52,7.67C243.86,242.27,250,244.17,256,244.88Z"/><path class="cls-19" d="M234.53,235.31l-4.84-7.26c-4.56,1.32-8.84,3-11.39,8.87Z"/><polygon class="cls-12" points="307.15 219.15 306.93 225.28 302.23 222.56 307.15 219.15"/></g><path class="cls-35" d="M421.62,249.89c-58.71,2.21-117.46,1.62-176.2,1.6-8.7,0-17.42.4-26-1.48-17.39.17-34.71-.35-51.77-4.27-1.06-.25-2.4.69-3.62,1.07a7.09,7.09,0,0,1-3.21-1.56c-9-5.71-19.57-7.63-29.35-11.44-24.88-9.69-49.82-19.2-72-34.45-7-4.79-13.82-9.68-18.66-16.91C31.72,169,34.2,154.88,47,145c18.83-14.56,40.87-22,63.2-28.57,23.24-6.85,47-11.72,70.87-15.87a63.08,63.08,0,0,1,7.92-.42,3.61,3.61,0,0,1-.13,3.75,261.52,261.52,0,0,0-18.55,47.88,6,6,0,0,1-2.08,3.28c-2.23,1.36-6.46.2-6.25,4.63.17,3.55,3.12,4.69,5.88,5.65a478.43,478.43,0,0,0,57.42,15.39,600.54,600.54,0,0,0,77.58,11.54,8,8,0,0,1,3.73,1.22c2.3,2.76.61,5.6,0,8.3a45.68,45.68,0,0,0,.25,23.56c1.25,4.35,2.51,9.31,8.29,9.18s7-5.12,8-9.48c1.61-6.71,2.8-13.47.88-20.42-.82-3-1.86-6.2.22-9.22,5.2-3,10.89-1.55,16.37-1.71,33.05-.93,65.5-5.33,96.84-16.32a172.32,172.32,0,0,0,41.82-21c2.08-1.45,5.5-2.65,4.65-5.7-.72-2.58-4.27-1.17-6.38-2.12-2.48-2-2.92-4.94-3.68-7.73a213.49,213.49,0,0,0-10.52-29.09c-1.35-3.09-3.34-6.13-1.82-9.79,31.32,1.11,61,9.23,89.51,21.68,13.81,6,27.89,11.58,39.72,21.36a73.6,73.6,0,0,1,20.63,26.72c7.67,17-.34,31.37-12.93,40-19.18,13.12-41.17,19.23-63.5,23.76a720,720,0,0,1-86.89,11.8C439.34,247.86,430.14,246.34,421.62,249.89Z"/><path class="cls-36" d="M169.25,154.51c3.53-19.43,11.21-37.28,20.74-54.42,15.78-28.33,36.28-52.15,65.8-66.75,24.09-11.92,49.63-14.89,76.34-11.58,24.07,3,47.27,8.35,69,19.19,25.07,12.48,44.57,30.85,58,55.53,1,1.86,2.23,3.6,3.35,5.39,6.18,15,13.21,29.77,16,46-.73,3.58-3.71,5-6.44,6.57-38.19,22.18-79.21,33.8-123.53,34.16-34.79.28-69.47-.71-103.82-6.66-23.58-4.09-46.76-9.78-68.25-20.81C173.55,159.61,169.77,158.76,169.25,154.51Z"/><path class="cls-37" d="M160.8,245.25c2-1.43,2.89-.49,3.21,1.57-1.09,9.68-2.25,19.36-3.25,29.05-.5,4.93-1,9.53,3.35,13.83s2.83,9.4-1.66,13.14c-4.33,3.6-8.86,3.12-12.75-.84s-5-10.19-.45-12.42c10-4.89,7.89-13.86,9.33-21.52C160,260.58,160.11,252.86,160.8,245.25Z"/><path class="cls-38" d="M326.49,251.6c0,12.42-.6,31.81-.3,43.2.19,7.25-2.31,14.85,5.23,21.06,3.13,2.59,2.78,9.45-2.15,12.5-3.95,2.44-9,2.77-12.33-1.16s-3.92-9.79.19-12.81c6.1-4.48,5.81-10.1,5.8-16.19,0-10.05.81-20.13.12-30.17C321.91,251.6,319.63,251.6,326.49,251.6Z"/><path class="cls-39" d="M168.29,154.51c20.78,13.08,44.14,18.93,67.78,23.65,41,8.21,82.61,9.64,124.26,7.76,42.43-1.92,81.38-15.42,117.22-38.07a36.89,36.89,0,0,1,5.3-1.38c2.45-.29,4.9,0,5.75,2.93.75,2.54-1.06,3.92-2.8,5.15a189.23,189.23,0,0,1-29.33,17.26c-28.83,13.43-59.38,19.7-90.89,22.52-13.72,1.23-27.44.89-41.15,1.54-6.05,2.86-11.8.94-17.55-1.12a623.43,623.43,0,0,1-136.46-26.12l-6-1.92c-5.34-1.71-7.09-5.57-5.35-10.53C160.92,150.84,164.89,153.43,168.29,154.51Z"/><path class="cls-2" d="M178.41,184.5c13.2,0,17.93,7.75,12.12,19.85-6,12.55-21.2,20.59-34.85,18.47-7.51-1.17-10.87-7.31-9-15.51C149.4,195.58,165.63,182.59,178.41,184.5Z"/><path class="cls-2" d="M436.28,186.3a29.82,29.82,0,0,1,3.08.82c15.05,5.42,25.23,15.71,30.79,30.68,1.64,4.39,1.16,8.51-2.15,11.72s-7.41,3.53-11.78,1.86c-14.9-5.69-25.35-15.85-30.46-31C423.07,192.43,427.8,186.09,436.28,186.3Z"/><path class="cls-40" d="M118.81,222.61c15.69,3.72,31,8.4,46.74,11.71,20.38,4.29,40.93,7.13,61.64,9.45,33.55,3.75,67.18,3.71,100.73,2.63,31.34-1,62.69-2.84,94-5.66,22.58-2,45.16-4.1,67.61-7,29-3.74,57.87-8.76,85.85-17.76l4.53-1.4c-4.89,4-15,7.46-25.53,9.84-32.67,7.4-65.79,12.25-99,15.6-23.33,2.35-46.81,3.73-70.21,5.49A1155,1155,0,0,1,257.33,248c-45.91-1.64-91.43-7.75-135-23.7A38.72,38.72,0,0,1,118.81,222.61Z"/><path class="cls-2" d="M306.88,194.75c5.93-.84,11.73.34,17.55,1.12,3,11.09,4.07,22.19-.07,33.24-1.6,4.28-3.53,8.19-9.29,8.24s-7.92-3.77-9.37-8.1C301.8,217.65,301.72,206.09,306.88,194.75Z"/><path class="cls-41" d="M405.34,54.75c6.45.4,11.3,3.73,15.61,7.45,17.47,15.09,30.68,33.48,40.68,54.23.46.95,1.19,2,1.16,2.93-.11,3.47,2.49,8.82-1.46,9.85-3.48.91-3.76-4.56-4.78-7.75-4.2-13.11-12.84-23.46-21.24-34C426.08,75.85,414.9,66.1,405.34,54.75Z"/><path class="cls-42" d="M97.71,173.46c-8.41-.32-17.42-.67-25.49-5.69-8.88-5.53-9.14-16.06.31-20.66,16.9-8.23,34.3-8.36,51.17.12,9.31,4.68,8.86,15.21-.15,20.66C115.72,172.62,107.05,173.16,97.71,173.46Z"/><path class="cls-2" d="M548.16,172.58c-9.64.88-18.51-1.07-25.7-7.94-6.58-6.29-5.4-14.57,2.52-19,10.47-5.9,31.8-3.28,40.54,5a12.49,12.49,0,0,1,3.58,13.11c-1.57,5.63-6.55,7.49-11.43,8.7C554.67,173.19,551.34,172.58,548.16,172.58Z"/></svg>