<svg id="Camada_1" data-name="Camada 1" xmlns="http://www.w3.org/2000/svg" viewBox="0 0 117.21 267.75"><defs><style>.cls-1{fill:#ffd301;}.cls-1,.cls-10,.cls-2,.cls-3,.cls-4,.cls-5,.cls-6,.cls-7,.cls-8{opacity:0.3;}.cls-2{fill:#ea8e04;}.cls-3{fill:#a7dbe0;}.cls-4{fill:#c4f0f5;}.cls-5{fill:#64d1d9;}.cls-6{fill:#f08e00;}.cls-7{fill:#ef8c02;}.cls-9{fill:none;stroke:#ef8c02;stroke-miterlimit:10;}.cls-10{fill:#ffae2f;}</style></defs><title>nave1 s-opacidade</title><path class="cls-1" d="M35.5,228.88C5.09,198.45,13.64,124.76,13.64,124.76c1.73-56.58,10.59-87.32,20-104C45.77-.69,58.82,1.11,58.82,1.11s10.4.3,21,18.06c9.16,15.29,18.5,43.51,21.52,95.6C107.93,227.38,80.18,226,80.18,226"/><circle class="cls-2" cx="58.09" cy="89.9" r="27"/><path class="cls-3" d="M2.71,250.37s8.75-74.83,11.71-72c2.27,2.2,9.62,46.82,21,48.22L32.09,256S16.26,259.12,2.71,250.37Z"/><path class="cls-4" d="M32.4,262S69.22,272.22,82,260c0,0-4-88-22.28-86.45S29.61,254.45,32.4,262Z"/><path class="cls-3" d="M112.3,251s-1.8-66.4-10.49-77.59a.6.6,0,0,0-1.07.3c-.84,7-3.78,47-22.12,52.51l3.2,30.16S102.14,259.67,112.3,251Z"/><path class="cls-5" d="M22.68,49.63S71.47,38.47,91.84,49C91.84,49,84,24.67,80.9,21c-3.33-4-14.54-8.57-47.52-.49C33.38,20.48,21.83,47.77,22.68,49.63Z"/><path class="cls-6" d="M33.54,20.44c2.55-.62,34.26-8.14,47.25.25,0,0-19.83-44.78-47.32-.36C33.44,20.39,33.48,20.46,33.54,20.44Z"/><circle class="cls-7" cx="57.82" cy="141" r="14.25"/><circle class="cls-4" cx="57.82" cy="141" r="10.03"/><g class="cls-8"><circle class="cls-9" cx="27.41" cy="140.99" r="7.92"/><circle class="cls-9" cx="27.41" cy="140.99" r="11.25"/></g><circle class="cls-7" cx="27.41" cy="140.99" r="11.25"/><circle class="cls-4" cx="27.41" cy="140.99" r="7.92"/><circle class="cls-7" cx="86.46" cy="141.93" r="11.25"/><circle class="cls-4" cx="86.46" cy="141.93" r="7.92"/><circle class="cls-10" cx="80.91" cy="90.46" r="2"/><circle class="cls-10" cx="77.16" cy="78.89" r="2"/><circle class="cls-10" cx="69.44" cy="70.5" r="2"/><circle class="cls-10" cx="57.76" cy="67.54" r="2"/><circle class="cls-10" cx="45.73" cy="70.4" r="2"/><circle class="cls-10" cx="38.69" cy="78.55" r="2"/><circle class="cls-10" cx="34.84" cy="90.68" r="2"/><circle class="cls-10" cx="38.59" cy="102.26" r="2"/><circle class="cls-10" cx="46.31" cy="110.64" r="2"/><circle class="cls-10" cx="57.98" cy="113.6" r="2"/><circle class="cls-10" cx="70.23" cy="110.07" r="2"/><circle class="cls-10" cx="77.48" cy="101.25" r="2"/><circle class="cls-4" cx="58.45" cy="89.27" r="18.39"/></svg>